<svg width="317" height="313" viewBox="0 0 317 313" fill="none" xmlns="http://www.w3.org/2000/svg">
<circle cx="1" cy="1" r="1" fill="#D9D9D9" fill-opacity="0.5"/>
<circle cx="1" cy="127" r="1" fill="#D9D9D9" fill-opacity="0.5"/>
<circle cx="1" cy="249" r="1" fill="#D9D9D9" fill-opacity="0.5"/>
<circle cx="127" cy="1" r="1" fill="#D9D9D9" fill-opacity="0.5"/>
<circle cx="127" cy="127" r="1" fill="#D9D9D9" fill-opacity="0.5"/>
<circle cx="127" cy="249" r="1" fill="#D9D9D9" fill-opacity="0.5"/>
<circle cx="253" cy="1" r="1" fill="#D9D9D9" fill-opacity="0.5"/>
<circle cx="253" cy="127" r="1" fill="#D9D9D9" fill-opacity="0.5"/>
<circle cx="253" cy="249" r="1" fill="#D9D9D9" fill-opacity="0.5"/>
<circle cx="1" cy="64" r="1" fill="#D9D9D9" fill-opacity="0.5"/>
<circle cx="1" cy="190" r="1" fill="#D9D9D9" fill-opacity="0.5"/>
<circle cx="1" cy="312" r="1" fill="#D9D9D9" fill-opacity="0.5"/>
<circle cx="127" cy="64" r="1" fill="#D9D9D9" fill-opacity="0.5"/>
<circle cx="127" cy="190" r="1" fill="#D9D9D9" fill-opacity="0.5"/>
<circle cx="127" cy="312" r="1" fill="#D9D9D9" fill-opacity="0.5"/>
<circle cx="253" cy="64" r="1" fill="#D9D9D9" fill-opacity="0.5"/>
<circle cx="253" cy="190" r="1" fill="#D9D9D9" fill-opacity="0.5"/>
<circle cx="253" cy="312" r="1" fill="#D9D9D9" fill-opacity="0.5"/>
<circle cx="64" cy="64" r="1" fill="#D9D9D9" fill-opacity="0.5"/>
<circle cx="64" cy="190" r="1" fill="#D9D9D9" fill-opacity="0.5"/>
<circle cx="64" cy="312" r="1" fill="#D9D9D9" fill-opacity="0.5"/>
<circle cx="190" cy="64" r="1" fill="#D9D9D9" fill-opacity="0.5"/>
<circle cx="190" cy="190" r="1" fill="#D9D9D9" fill-opacity="0.5"/>
<circle cx="190" cy="312" r="1" fill="#D9D9D9" fill-opacity="0.5"/>
<circle cx="316" cy="64" r="1" fill="#D9D9D9" fill-opacity="0.5"/>
<circle cx="316" cy="190" r="1" fill="#D9D9D9" fill-opacity="0.5"/>
<circle cx="316" cy="312" r="1" fill="#D9D9D9" fill-opacity="0.5"/>
<circle cx="64" cy="1" r="1" fill="#D9D9D9" fill-opacity="0.5"/>
<circle cx="64" cy="127" r="1" fill="#D9D9D9" fill-opacity="0.5"/>
<circle cx="64" cy="249" r="1" fill="#D9D9D9" fill-opacity="0.5"/>
<circle cx="190" cy="1" r="1" fill="#D9D9D9" fill-opacity="0.5"/>
<circle cx="190" cy="127" r="1" fill="#D9D9D9" fill-opacity="0.5"/>
<circle cx="190" cy="249" r="1" fill="#D9D9D9" fill-opacity="0.5"/>
<circle cx="316" cy="1" r="1" fill="#D9D9D9" fill-opacity="0.5"/>
<circle cx="316" cy="127" r="1" fill="#D9D9D9" fill-opacity="0.5"/>
<circle cx="316" cy="249" r="1" fill="#D9D9D9" fill-opacity="0.5"/>
</svg>
