<svg width="560" height="560" viewBox="0 0 610 610" fill="none" xmlns="http://www.w3.org/2000/svg">
<circle cx="1" cy="1" r="1" fill="white"/>
<circle cx="1" cy="63" r="1" fill="white"/>
<circle cx="1" cy="125" r="1" fill="white"/>
<circle cx="1" cy="187" r="1" fill="white"/>
<circle cx="1" cy="249" r="1" fill="white"/>
<circle cx="63" cy="1" r="1" fill="white"/>
<circle cx="63" cy="63" r="1" fill="white"/>
<circle cx="63" cy="125" r="1" fill="white"/>
<circle cx="63" cy="187" r="1" fill="white"/>
<circle cx="63" cy="249" r="1" fill="white"/>
<circle cx="125" cy="1" r="1" fill="white"/>
<circle cx="125" cy="63" r="1" fill="white"/>
<circle cx="125" cy="125" r="1" fill="white"/>
<circle cx="125" cy="187" r="1" fill="white"/>
<circle cx="125" cy="249" r="1" fill="white"/>
<circle cx="187" cy="1" r="1" fill="white"/>
<circle cx="187" cy="63" r="1" fill="white"/>
<circle cx="187" cy="125" r="1" fill="white"/>
<circle cx="187" cy="187" r="1" fill="white"/>
<circle cx="187" cy="249" r="1" fill="white"/>
<circle cx="249" cy="1" r="1" fill="white"/>
<circle cx="249" cy="63" r="1" fill="white"/>
<circle cx="249" cy="125" r="1" fill="white"/>
<circle cx="249" cy="187" r="1" fill="white"/>
<circle cx="249" cy="249" r="1" fill="white"/>
<circle cx="311" cy="1" r="1" fill="white"/>
<circle cx="311" cy="63" r="1" fill="white"/>
<circle cx="311" cy="125" r="1" fill="white"/>
<circle cx="311" cy="187" r="1" fill="white"/>
<circle cx="311" cy="249" r="1" fill="white"/>
<circle cx="373" cy="1" r="1" fill="white"/>
<circle cx="373" cy="63" r="1" fill="white"/>
<circle cx="373" cy="125" r="1" fill="white"/>
<circle cx="373" cy="187" r="1" fill="white"/>
<circle cx="373" cy="249" r="1" fill="white"/>
<circle cx="435" cy="1" r="1" fill="white"/>
<circle cx="435" cy="63" r="1" fill="white"/>
<circle cx="435" cy="125" r="1" fill="white"/>
<circle cx="435" cy="187" r="1" fill="white"/>
<circle cx="435" cy="249" r="1" fill="white"/>
<circle cx="497" cy="1" r="1" fill="white"/>
<circle cx="497" cy="63" r="1" fill="white"/>
<circle cx="497" cy="125" r="1" fill="white"/>
<circle cx="497" cy="187" r="1" fill="white"/>
<circle cx="497" cy="249" r="1" fill="white"/>
<circle cx="559" cy="1" r="1" fill="white"/>
<circle cx="559" cy="63" r="1" fill="white"/>
<circle cx="559" cy="125" r="1" fill="white"/>
<circle cx="559" cy="187" r="1" fill="white"/>
<circle cx="559" cy="249" r="1" fill="white"/>
<circle cx="1" cy="311" r="1" fill="white"/>
<circle cx="1" cy="373" r="1" fill="white"/>
<circle cx="1" cy="435" r="1" fill="white"/>
<circle cx="1" cy="497" r="1" fill="white"/>
<circle cx="1" cy="559" r="1" fill="white"/>
<circle cx="63" cy="311" r="1" fill="white"/>
<circle cx="63" cy="373" r="1" fill="white"/>
<circle cx="63" cy="435" r="1" fill="white"/>
<circle cx="63" cy="497" r="1" fill="white"/>
<circle cx="63" cy="559" r="1" fill="white"/>
<circle cx="125" cy="311" r="1" fill="white"/>
<circle cx="125" cy="373" r="1" fill="white"/>
<circle cx="125" cy="435" r="1" fill="white"/>
<circle cx="125" cy="497" r="1" fill="white"/>
<circle cx="125" cy="559" r="1" fill="white"/>
<circle cx="187" cy="311" r="1" fill="white"/>
<circle cx="187" cy="373" r="1" fill="white"/>
<circle cx="187" cy="435" r="1" fill="white"/>
<circle cx="187" cy="497" r="1" fill="white"/>
<circle cx="187" cy="559" r="1" fill="white"/>
<circle cx="249" cy="311" r="1" fill="white"/>
<circle cx="249" cy="373" r="1" fill="white"/>
<circle cx="249" cy="435" r="1" fill="white"/>
<circle cx="249" cy="497" r="1" fill="white"/>
<circle cx="249" cy="559" r="1" fill="white"/>
<circle cx="311" cy="311" r="1" fill="white"/>
<circle cx="311" cy="373" r="1" fill="white"/>
<circle cx="311" cy="435" r="1" fill="white"/>
<circle cx="311" cy="497" r="1" fill="white"/>
<circle cx="311" cy="559" r="1" fill="white"/>
<circle cx="373" cy="311" r="1" fill="white"/>
<circle cx="373" cy="373" r="1" fill="white"/>
<circle cx="373" cy="435" r="1" fill="white"/>
<circle cx="373" cy="497" r="1" fill="white"/>
<circle cx="373" cy="559" r="1" fill="white"/>
<circle cx="435" cy="311" r="1" fill="white"/>
<circle cx="435" cy="373" r="1" fill="white"/>
<circle cx="435" cy="435" r="1" fill="white"/>
<circle cx="435" cy="497" r="1" fill="white"/>
<circle cx="435" cy="559" r="1" fill="white"/>
<circle cx="497" cy="311" r="1" fill="white"/>
<circle cx="497" cy="373" r="1" fill="white"/>
<circle cx="497" cy="435" r="1" fill="white"/>
<circle cx="497" cy="497" r="1" fill="white"/>
<circle cx="497" cy="559" r="1" fill="white"/>
<circle cx="559" cy="311" r="1" fill="white"/>
<circle cx="559" cy="373" r="1" fill="white"/>
<circle cx="559" cy="435" r="1" fill="white"/>
<circle cx="559" cy="497" r="1" fill="white"/>
<circle cx="559" cy="559" r="1" fill="white"/>
</svg>
